# xmcd
#
# Track frame offsets:
#	150
#	17589
#	30323
#	43602
#	57250
#	68979
#	82081
#	96336
#	107018
#	121046
#	132159
#	146410
#	161028
#	178322
#	199327
#	214841
#
# Disc length: 3433 seconds
#
# Revision: 1
# Processed by: cddbd v1.5.2PL0 Copyright (c) Steve Scherf et al.
# Submitted via: audiograbber 1.83.01
#
DISCID=e30d6710
DTITLE=Josh White and "Big" Bill Bronozy - Comes A-Visitin', Comes A-Singin'
DYEAR=2006
DGENRE=Blues
TTITLE0=Bonbons, Chocolate and Chewing Gum
TTITLE1=You Know Baby
TTITLE2=She's Too Much For Me
TTITLE3=When' The Dark Clouds Roll By
TTITLE4=Come Along, Charlie
TTITLE5=Bury Me High
TTITLE6=Evil-Hearted Me
TTITLE7=Go Away From My Window
TTITLE8=Hey Bud Blues
TTITLE9=Baby Please Don't Go
TTITLE10=Letter To My Baby
TTITLE11=Do Right Blues
TTITLE12=Make My Getaway
TTITLE13=Backwater Blues
TTITLE14=Lowland Blues
TTITLE15=Hollerin' and Cryin' The Blues
EXTD=
EXTT0=
EXTT1=
EXTT2=
EXTT3=
EXTT4=
EXTT5=
EXTT6=
EXTT7=
EXTT8=
EXTT9=
EXTT10=
EXTT11=
EXTT12=
EXTT13=
EXTT14=
EXTT15=
PLAYORDER=
